<?xml version="1.0" encoding="utf-8"?>
<!-- Generator: Adobe Illustrator 16.0.2, SVG Export Plug-In . SVG Version: 6.00 Build 0)  -->
<!DOCTYPE svg PUBLIC "-//W3C//DTD SVG 1.1//EN" "http://www.w3.org/Graphics/SVG/1.1/DTD/svg11.dtd">
<svg version="1.1" id="Layer_1" xmlns="http://www.w3.org/2000/svg" xmlns:xlink="http://www.w3.org/1999/xlink" x="0px" y="0px"
	 width="1919.7px" height="267.344px" viewBox="-3191.7 1790.556 1919.7 267.344"
	 enable-background="new -3191.7 1790.556 1919.7 267.344" xml:space="preserve">
<g id="Layer_1_1_">
	
		<image overflow="visible" enable-background="new    " width="1051" height="4000" xlink:href="../../Organización/Empresa/estructura/Web/Pagina Informativa/Vistaprevia.jpg"  transform="matrix(1.8257 0 0 1.8257 2289.1865 0.0059)">
	</image>
</g>
<path fill="#22A0A8" d="M4300.188,1225c0,0,229.813-174,637.813-180s636.3-273.685,984.229-741.591H6219v1817.637H4299
	L4300.188,1225z"/>
<path fill="#22A0A8" d="M1.188,1225c0,0,229.813-174,637.813-180s636.3-273.685,984.229-741.591H1920v1817.637H0L1.188,1225z"/>
<path fill="#22A0A8" d="M-1272,303.41V1225h-1918.81c0,0,229.81-174,637.81-180s636.3-273.68,984.23-741.59H-1272z"/>
<g id="Wave_1">
	<path fill="#16712B" d="M8222.6,1968.02v19.5c0,0-224.949,48-838.42-66c0,0-398.061-104.108-1081.58-101.09v-17.1l1.182-0.33
		c0,0,796.818-66,1357.818,106C7661.6,1909,7901.57,1977.02,8222.6,1968.02z"/>
	<path fill="#16712B" d="M4223,2019.6l-15,4.21v-4.02C4212.99,2019.73,4217.99,2019.67,4223,2019.6z"/>
	
		<linearGradient id="SVGID_1_" gradientUnits="userSpaceOnUse" x1="7262.5996" y1="2555.5649" x2="7262.5996" y2="5460.749" gradientTransform="matrix(1 0 0 -1 0 7303.7998)">
		<stop  offset="0.1362" style="stop-color:#12491D"/>
		<stop  offset="0.449" style="stop-color:#134B1E"/>
		<stop  offset="0.6519" style="stop-color:#16531F"/>
		<stop  offset="0.8235" style="stop-color:#1B6222"/>
		<stop  offset="0.9769" style="stop-color:#227825"/>
		<stop  offset="1" style="stop-color:#237D26"/>
	</linearGradient>
	<path fill="url(#SVGID_1_)" d="M8222.6,2019.79V4695c-482.96,119.779-834.17,0-834.17,0c-618.061-207.25-1085.83,0-1085.83,0
		V2121.05l1.189-249.27c-0.399,0-0.789,0-1.189,0.01v-24.71c94.4-7.99,335.66-12.51,790.42,72
		C7093.02,1919.08,7509.75,2028.07,8222.6,2019.79z"/>
	
		<linearGradient id="SVGID_2_" gradientUnits="userSpaceOnUse" x1="5259" y1="0.9995" x2="5259" y2="1315.5815" gradientTransform="matrix(1 0 0 -1 0 7303.7998)">
		<stop  offset="0.1362" style="stop-color:#12491D"/>
		<stop  offset="0.449" style="stop-color:#134B1E"/>
		<stop  offset="0.6519" style="stop-color:#16531F"/>
		<stop  offset="0.8235" style="stop-color:#1B6222"/>
		<stop  offset="0.9769" style="stop-color:#227825"/>
		<stop  offset="1" style="stop-color:#237D26"/>
	</linearGradient>
	<path fill="url(#SVGID_2_)" d="M6218.41,6041.71V7302.8H4299.59V6041.32c160.76-39.82,306.891-53.102,430.33-53.102
		c247.16,0,403.25,53.24,403.25,53.24C5738.529,6244.451,6199.709,6049.8,6218.41,6041.71z"/>
	
		<linearGradient id="SVGID_3_" gradientUnits="userSpaceOnUse" x1="960.0005" y1="0.9995" x2="960.0004" y2="1315.5815" gradientTransform="matrix(1 0 0 -1 0 7303.7998)">
		<stop  offset="0.1362" style="stop-color:#12491D"/>
		<stop  offset="0.449" style="stop-color:#134B1E"/>
		<stop  offset="0.6519" style="stop-color:#16531F"/>
		<stop  offset="0.8235" style="stop-color:#1B6222"/>
		<stop  offset="0.9769" style="stop-color:#227825"/>
		<stop  offset="1" style="stop-color:#237D26"/>
	</linearGradient>
	<path fill="url(#SVGID_3_)" d="M1919.411,6041.71V7302.8H0.59V6041.32c160.76-39.82,306.892-53.102,430.33-53.102
		c247.16,0,403.25,53.24,403.25,53.24C1439.53,6244.451,1900.709,6049.8,1919.411,6041.71z"/>
	<linearGradient id="SVGID_4_" gradientUnits="userSpaceOnUse" x1="-2232" y1="5988.2202" x2="-2232" y2="6191.7495">
		<stop  offset="0.1362" style="stop-color:#12491D"/>
		<stop  offset="0.449" style="stop-color:#134B1E"/>
		<stop  offset="0.6519" style="stop-color:#16531F"/>
		<stop  offset="0.8235" style="stop-color:#1B6222"/>
		<stop  offset="0.9769" style="stop-color:#227825"/>
		<stop  offset="1" style="stop-color:#237D26"/>
	</linearGradient>
	<path fill="url(#SVGID_4_)" d="M-1272.59,6041.709v150.04h-1918.82v-150.43c160.76-39.82,306.89-53.1,430.33-53.1
		c247.16,0,403.25,53.239,403.25,53.239C-1752.47,6244.45-1291.29,6049.8-1272.59,6041.709z"/>
	<path fill="#16712B" d="M4567.951,4461.21L4567.951,4461.21z"/>
	<rect x="6302.6" y="1677.13" fill="none" width="1920" height="1697.66"/>
	<path fill="#16712B" d="M1920,1968.02v19.5c0,0-224.949,48-838.42-66c0,0-398.06-104.108-1081.58-101.09v-17.1l1.181-0.33
		c0,0,796.819-66,1357.819,106C1359,1909,1598.971,1977.02,1920,1968.02z"/>
	<path fill="#16712B" d="M-1272,1968.02v19.5c0,0-224.949,48-838.42-66c0,0-398.06-104.108-1081.58-101.09v-17.1l1.181-0.33
		c0,0,796.819-66,1357.819,106C-1833,1909-1593.029,1977.02-1272,1968.02z"/>
	
		<linearGradient id="SVGID_5_" gradientUnits="userSpaceOnUse" x1="959.9995" y1="2555.5649" x2="959.9994" y2="5460.749" gradientTransform="matrix(1 0 0 -1 0 7303.7998)">
		<stop  offset="0.1362" style="stop-color:#12491D"/>
		<stop  offset="0.449" style="stop-color:#134B1E"/>
		<stop  offset="0.6519" style="stop-color:#16531F"/>
		<stop  offset="0.8235" style="stop-color:#1B6222"/>
		<stop  offset="0.9769" style="stop-color:#227825"/>
		<stop  offset="1" style="stop-color:#237D26"/>
	</linearGradient>
	<path fill="url(#SVGID_5_)" d="M1920,2019.79V4695c-482.96,119.779-834.17,0-834.17,0C467.771,4487.75,0,4695,0,4695V2121.05
		l1.19-249.27c-0.4,0-0.79,0-1.19,0.01v-24.71c94.4-7.99,335.66-12.51,790.42,72C790.42,1919.08,1207.15,2028.07,1920,2019.79z"/>
	<linearGradient id="SVGID_6_" gradientUnits="userSpaceOnUse" x1="-2232" y1="4572.0796" x2="-2232" y2="4748.2349">
		<stop  offset="0.1362" style="stop-color:#12491D"/>
		<stop  offset="0.449" style="stop-color:#134B1E"/>
		<stop  offset="0.6519" style="stop-color:#16531F"/>
		<stop  offset="0.8235" style="stop-color:#1B6222"/>
		<stop  offset="0.9769" style="stop-color:#227825"/>
		<stop  offset="1" style="stop-color:#237D26"/>
	</linearGradient>
	<path fill="url(#SVGID_6_)" d="M-1272,4572.08V4695c-482.96,119.78-834.17,0-834.17,0c-618.06-207.25-1085.83,0-1085.83,0v-122.92
		H-1272z"/>
	<linearGradient id="SVGID_7_" gradientUnits="userSpaceOnUse" x1="-2232" y1="1843.0508" x2="-2232" y2="2057.8999">
		<stop  offset="0.1362" style="stop-color:#12491D"/>
		<stop  offset="0.449" style="stop-color:#134B1E"/>
		<stop  offset="0.6519" style="stop-color:#16531F"/>
		<stop  offset="0.8235" style="stop-color:#1B6222"/>
		<stop  offset="0.9769" style="stop-color:#227825"/>
		<stop  offset="1" style="stop-color:#237D26"/>
	</linearGradient>
	<path fill="url(#SVGID_7_)" d="M-1272,2019.79v38.11h-1919.7l0.89-186.12c-0.4,0-0.79,0-1.19,0.01v-24.71
		c94.4-7.99,335.66-12.51,790.42,72C-2401.58,1919.08-1984.85,2028.07-1272,2019.79z"/>
	<rect y="1677.13" fill="none" width="1920" height="1697.66"/>
	<rect x="4299.59" y="5988.22" fill="none" width="1918.82" height="1314.58"/>
	<linearGradient id="SVGID_8_" gradientUnits="userSpaceOnUse" x1="-3191.7051" y1="6545.6802" x2="-3191.7051" y2="6191.7495">
		<stop  offset="0.1362" style="stop-color:#12491D"/>
		<stop  offset="0.449" style="stop-color:#134B1E"/>
		<stop  offset="0.6519" style="stop-color:#16531F"/>
		<stop  offset="0.8235" style="stop-color:#1B6222"/>
		<stop  offset="0.9769" style="stop-color:#227825"/>
		<stop  offset="1" style="stop-color:#237D26"/>
	</linearGradient>
	<rect x="-3192" y="6191.75" fill="url(#SVGID_8_)" width="0.59" height="353.931"/>
</g>
<g id="South_Publicity">
	<text transform="matrix(1 0 0 1 6239.5957 210.6167)" fill="#B3C8DA" font-family="'Cuprum-BoldItalic'" font-size="80">South Publicity</text>
</g>
<g id="Header">
	<path fill="#122C1F" d="M6218.404,0v61.61H4624.027c-41.998-1.496-93.572,42.788-96.612,85.62
		c-3.343,47.104-38.19,86.88-85.29,86.88h-142.529V0H6218.404z"/>
	<path fill="#122C1F" d="M1919.405,0v61.61H325.027c-41.999-1.496-93.572,42.788-96.612,85.62
		c-3.343,47.104-38.19,86.88-85.29,86.88H0.596V0H1919.405z"/>
</g>
<polyline fill="none" points="-1257.9,1225 -1272,1225 -3190.81,1225 "/>
</svg>
