<?xml version="1.0" encoding="utf-8"?>
<!-- Generator: Adobe Illustrator 16.0.2, SVG Export Plug-In . SVG Version: 6.00 Build 0)  -->
<!DOCTYPE svg PUBLIC "-//W3C//DTD SVG 1.1//EN" "http://www.w3.org/Graphics/SVG/1.1/DTD/svg11.dtd">
<svg version="1.1" id="Layer_1" xmlns="http://www.w3.org/2000/svg" xmlns:xlink="http://www.w3.org/1999/xlink" x="0px" y="0px"
	 width="324.876px" height="250.405px" viewBox="0 0 324.876 250.405" enable-background="new 0 0 324.876 250.405"
	 xml:space="preserve">
<path fill-rule="evenodd" clip-rule="evenodd" fill="#276232" d="M0,249.939c28.452-12.443,54.284-28.827,76.438-50.758
	c13.875-13.734,26.695-28.311,36.365-45.412c0.646-1.139,1.479-2.306,1.648-3.54c0.146-1.067-0.377-2.343-0.95-3.321
	c-0.155-0.261-1.602,0.146-2.415,0.384c-0.658,0.193-1.232,0.776-1.886,0.854c-0.625,0.075-1.301-0.277-1.954-0.441
	c0.214-0.707,0.31-1.491,0.691-2.095c0.251-0.397,0.916-0.531,1.393-0.788c2.686-1.433,2.742-1.694,1.523-4.453
	c-1.104-2.494-3.245-3.479-5.683-3.907c-19.979-3.504-39.97-6.966-59.952-10.678c21.125,0,42.248,0,63.634,0
	c0.473-3.602,0.928-7.108,1.397-10.61c0.146-1.077,0.308-2.149,0.506-3.215c0.466-2.508-0.198-4.464-2.689-5.502
	c-1.972-0.82-1.74-2.012-0.588-3.516c1.671,0.763,3.345,1.525,4.952,2.257c0.241-0.111,0.431-0.136,0.507-0.244
	c4.695-6.563,4.286-5.385,0.258-11.11c-5.041-7.164-10.184-14.255-15.266-21.391c-0.547-0.768-0.985-1.614-1.474-2.426
	c0.157-0.112,0.317-0.223,0.476-0.336c16.011,16.454,32.021,32.905,48.215,49.548c0.691-2.771,2.487-3.804,4.949-4.065
	c2.292-0.244,2.487-2.034,2.48-3.808c-0.015-3.953-0.119-7.907-0.136-11.859c-0.028-5.347-0.007-10.693-0.007-16.805
	c-1.934,3.268-3.7,5.939-5.142,8.778c-1.125,2.219-2.509,3.741-5.052,4.326c-1.705,0.39-3.298,1.313-4.9,2.09
	c-1.586,0.77-2.943,0.632-4.235-0.62c-2.265-2.198-4.579-4.347-7.145-6.771c1.923-1.338,3.257-2.365,4.688-3.23
	c1.094-0.657,1.342-1.333,0.676-2.442c-0.515-0.859-1.024-1.771-1.269-2.726c-0.145-0.579,0.039-1.665,0.405-1.843
	c0.503-0.24,1.368,0.049,1.979,0.328c0.348,0.16,0.459,0.784,0.741,1.149c0.943,1.215,1.404,3.089,3.588,2.671
	c2.323-0.446,3.725-1.848,4.159-4.131c0.551-2.891,0.982-5.803,1.485-8.705c3.13-18.01,6.265-36.019,9.412-54.026
	c0.075-0.44,0.32-0.851,0.78-1.255c0,21.895,0,43.787,0,65.944c4.166,0.408,8.121,0.794,12.44,1.216
	c-0.725-3.237-1.334-6.092-2.014-8.935c-0.459-1.919-0.123-3.49,1.531-4.734c18.276-13.734,36.305-27.829,56.755-38.353
	c21.67-11.148,43.787-21.215,67.59-26.913c7.96-1.905,16.163-2.778,24.251-4.136c0.348-0.059,0.676-0.253,1.012-0.386
	c3.569,0,7.136,0,10.706,0c-6.221,1.553-12.477,2.979-18.658,4.68c-38.925,10.712-73.217,29.698-102.243,57.856
	c-6.775,6.572-12.942,13.776-19.385,20.694c-0.3,0.322-0.54,0.696-0.563,1.316c7.425-5.27,14.847-10.541,22.271-15.811
	c0.22,0.247,0.436,0.493,0.655,0.738c-15.998,16.302-31.993,32.604-48.199,49.118c2.425,0.326,3.376,1.693,3.772,3.739
	c0.536,2.75,1.278,3.13,4.222,3.102c9.072-0.083,18.145-0.104,27.217-0.144c0.375-0.002,0.749,0.071,1.511,0.148
	c-0.202,2.901-0.372,5.723-0.607,8.541c-0.198,2.393-0.375,4.796-0.741,7.165c-0.276,1.791,0.175,2.94,1.934,3.605
	c0.92,0.349,1.73,0.986,2.706,1.561c-0.825,1.933-2.089,2.066-3.74,1.333c-1.227-0.543-2.378-1.964-3.827-0.139
	c-2.868,3.619-3.173,4.5-1.47,6.896c5.657,7.96,11.371,15.883,17.046,23.829c0.683,0.956,1.27,1.979,1.94,3.034
	c-4.443-4.23-8.873-8.225-13.049-12.467c-11.26-11.436-22.421-22.969-33.586-34.499c-0.938-0.967-1.655-0.996-2.976-0.627
	c-5.146,1.432-7.004,4.314-6.521,9.854c0.631,7.235,0.15,14.566,0.16,21.858c0,0.817,0.074,1.635,0.111,2.452
	c0.22,0.071,0.439,0.143,0.657,0.212c1.165-2.257,2.545-4.438,3.443-6.798c1.114-2.938,2.924-4.78,5.998-5.552
	c1.483-0.371,2.96-1.005,4.264-1.806c1.985-1.216,3.394-0.955,4.956,0.804c2.311,2.602,4.884,4.966,7.354,7.437
	c-0.851,3.229-7.605,3.616-3.661,9.105c-1.031,0-1.669,0.185-2.111-0.03c-2.359-1.144-3.992,0.017-5.832,1.372
	c-4.567,3.357-6.078,8.039-6.944,13.377c-2.449,15.036-5.211,30.021-8.298,44.987c0-20.24,0-40.481,0-61.05
	c-4.214-0.664-8.272-1.304-12.759-2.012c1.261,6.274,2.393,12.178,3.647,18.052c1.02,4.764,1.083,4.744-2.99,7.614
	c-27.046,19.051-55.772,34.913-87.061,45.917c-13.25,4.659-26.779,8.243-40.659,10.479c-0.423,0.065-0.817,0.303-1.225,0.461
	c-1.396,0-2.793,0-4.19,0c0.763-0.308,1.51-0.664,2.292-0.915c7.508-2.413,15.131-4.527,22.521-7.266
	c33.235-12.313,62.283-31.356,88.084-55.485c6.332-5.922,12.443-12.073,18.715-18.176c-2.853-2.184-3.295-2.093-4.64,0.474
	c-0.287,0.551-0.483,1.195-0.904,1.612c-0.548,0.552-1.276,0.92-1.927,1.366c-0.363-0.889-1.041-1.787-1.006-2.661
	c0.046-1.111,0.74-2.185,1.002-3.308c0.095-0.416-0.108-1.11-0.425-1.357c-0.338-0.263-1.073-0.348-1.453-0.153
	c-0.592,0.302-1.058,0.882-1.529,1.386c-7.605,8.055-14.877,16.458-22.861,24.116c-23.844,22.864-50.939,40.891-81.724,53.103
	c-6.955,2.759-14.17,4.859-21.264,7.265C1.553,250.25,0.777,250.094,0,249.939z M109.888,125.747
	c-0.032,0.161-0.066,0.319-0.102,0.479c1.236,0.609,2.464,1.234,3.71,1.827c8.34,3.953,8.236,3.993,11.581,12.461
	c1.016,2.565,0.739,4.144-1.19,6.219c-8.594,9.253-16.835,18.818-23.545,29.58c-0.831,1.331-1.455,2.79-2.176,4.188
	c0.634-0.04,0.939-0.262,1.202-0.529c13.654-14.048,27.291-28.117,40.971-42.145c4.644-4.758,4.736-4.735,1.568-10.608
	c-0.402-0.747-1.545-1.551-2.354-1.558c-9.45-0.108-18.903-0.073-28.354-0.063C110.762,125.597,110.327,125.694,109.888,125.747z
	 M152.475,131.641c3.358,0.018,6.224-2.832,6.239-6.204c0.017-3.43-2.776-6.343-6.085-6.354c-3.401-0.011-6.536,3.051-6.473,6.324
	C146.222,128.697,149.189,131.624,152.475,131.641z M179.341,142.961c1.376-3.626,2.6-6.852,3.982-10.499
	c-5.23,0.75-10.061,1.442-15.498,2.222C171.896,137.611,175.49,140.194,179.341,142.961z M135.706,152.993
	c3.369,1.397,6.521,2.702,10.028,4.155c-0.805-5.054-1.534-9.623-2.361-14.819C140.579,146.216,138.204,149.519,135.706,152.993z
	 M169.362,98.567c-3.397-1.425-6.457-2.71-9.869-4.142c0.757,5.02,1.443,9.6,2.212,14.735
	C164.418,105.404,166.766,102.158,169.362,98.567z M136.737,116.266c-3.888-2.787-7.241-5.19-10.784-7.73
	c-1.315,3.355-2.501,6.383-3.819,9.747C127.092,117.596,131.592,116.976,136.737,116.266z M135.859,86.781
	c-1.118,1.506-2.633,2.663-2.539,3.669c0.091,0.976,1.943,2.605,2.828,2.487c1.201-0.161,2.219-1.71,3.313-2.663
	C138.409,89.252,137.355,88.232,135.859,86.781z M140.2,160.84c-1.609-1.151-2.728-2.566-3.792-2.526
	c-0.932,0.037-2.663,1.891-2.51,2.614c0.271,1.271,1.714,2.294,2.664,3.421C137.605,163.346,138.642,162.342,140.2,160.84z
	 M116.454,111.887c0.438,0.005,0.876,0.011,1.315,0.014c0.704-1.313,1.913-2.611,1.947-3.939c0.021-0.897-1.608-1.836-2.5-2.756
	c-0.883,0.889-2.473,1.771-2.483,2.672C114.719,109.208,115.823,110.549,116.454,111.887z M168.741,156.324
	c-3.675,4.036-3.668,4.472,0.039,6.935C172.464,160.732,172.472,160.165,168.741,156.324z M115.049,141.042
	c-0.025,0.425-0.052,0.846-0.078,1.271c1.287,0.7,2.536,1.831,3.874,1.947c0.827,0.07,1.789-1.396,2.69-2.175
	c-0.888-0.994-1.707-2.699-2.686-2.797C117.654,139.168,116.323,140.397,115.049,141.042z M186.755,144.424
	c0.371-0.007,0.744-0.01,1.116-0.018c0.746-1.219,2.01-2.416,2.066-3.668c0.039-0.919-1.499-1.909-2.335-2.87
	c-0.956,0.92-2.626,1.794-2.688,2.772C184.833,141.857,186.082,143.16,186.755,144.424z M167.574,93.862
	c0.419,0.016,0.833,0.03,1.25,0.045c0.776-1.189,2.15-2.384,2.147-3.569c-0.004-1.006-1.603-2.008-2.496-3.009
	c-0.906,0.857-2.519,1.688-2.55,2.574C165.881,91.203,166.968,92.541,167.574,93.862z"/>
<path fill-rule="evenodd" clip-rule="evenodd" fill="#276232" d="M309.679,5.542c-8.91,5.14-18.007,9.979-26.693,15.472
	c-30.147,19.063-54.716,43.792-73.612,74.045c-3.219,5.152-5.496,10.899-8.105,16.424c-0.982,2.076-0.355,3.041,2.115,3.506
	c9.133,1.719,18.264,3.427,27.413,5.061c9.802,1.75,19.621,3.416,30.074,5.229c-1.616,0-2.611,0-3.608,0
	c-18.92,0-37.839,0.061-56.757-0.075c-2.448-0.018-4.905-1.018-7.332-1.651c-0.733-0.19-1.389-0.676-2.08-1.021
	c-8.579-4.288-8.533-4.305-11.693-13.385c-0.515-1.475,0.23-2.13,0.976-3.008c6.123-7.196,12.429-14.25,18.273-21.666
	c3.139-3.983,5.653-8.496,8.13-12.949c2.916-5.242,6.813-9.555,11.3-13.438c15.386-13.315,31.463-25.664,49.358-35.477
	c12.665-6.946,25.975-12.382,39.708-16.804c0.818-0.263,1.688-0.363,2.534-0.538C309.679,5.359,309.679,5.451,309.679,5.542z
	 M184.326,108.63c-0.035,0.338-0.07,0.679-0.107,1.021c1.201,0.881,2.333,2.303,3.626,2.463c0.893,0.115,2.006-1.508,3.02-2.358
	c-0.829-0.944-1.612-2.608-2.502-2.668C187.057,106.998,185.675,108.059,184.326,108.63z"/>
</svg>
