<?xml version="1.0" encoding="utf-8"?>
<!-- Generator: Adobe Illustrator 16.0.2, SVG Export Plug-In . SVG Version: 6.00 Build 0)  -->
<!DOCTYPE svg PUBLIC "-//W3C//DTD SVG 1.1//EN" "http://www.w3.org/Graphics/SVG/1.1/DTD/svg11.dtd">
<svg version="1.1" xmlns="http://www.w3.org/2000/svg" xmlns:xlink="http://www.w3.org/1999/xlink" x="0px" y="0px"
	 width="497.014px" height="91.496px" viewBox="0 0 497.014 91.496" enable-background="new 0 0 497.014 91.496"
	 xml:space="preserve">
<g id="Layer_1">
	
		<image overflow="visible" width="1051" height="4000" xlink:href="../Vistaprevia.jpg"  transform="matrix(1.8257 0 0 1.8257 -3949.8125 -142.6138)">
	</image>
</g>
<g id="Wave_2">
	<path fill="#22A0A8" d="M-1938.813,1082.386c0,0,229.813-174,637.813-180s636.3-273.685,984.229-741.591H-20v1817.637h-1920
		L-1938.813,1082.386z"/>
	<path fill="#22A0A8" d="M-6237.813,1082.386c0,0,229.813-174,637.813-180s636.3-273.685,984.229-741.591H-4319v1817.637h-1920
		L-6237.813,1082.386z"/>
</g>
<g id="Wave_1">
	<path fill="#16712B" d="M1983.6,1825.405v19.5c0,0-224.949,48-838.42-66c0,0-398.06-104.109-1081.58-101.09v-17.1l1.181-0.33
		c0,0,796.819-66,1357.819,106C1422.6,1766.386,1662.57,1834.405,1983.6,1825.405z"/>
	<path fill="#16712B" d="M-2016,1876.985l-15,4.21v-4.02C-2026.01,1877.116-2021.01,1877.056-2016,1876.985z"/>
	<linearGradient id="SVGID_1_" gradientUnits="userSpaceOnUse" x1="1023.6006" y1="4605.6211" x2="1023.6005" y2="1700.4365">
		<stop  offset="0.1362" style="stop-color:#12491D"/>
		<stop  offset="0.449" style="stop-color:#134B1E"/>
		<stop  offset="0.6519" style="stop-color:#16531F"/>
		<stop  offset="0.8235" style="stop-color:#1B6222"/>
		<stop  offset="0.9769" style="stop-color:#227825"/>
		<stop  offset="1" style="stop-color:#237D26"/>
	</linearGradient>
	<path fill="url(#SVGID_1_)" d="M1983.6,1877.176v2675.21c-482.96,119.78-834.17,0-834.17,0c-618.06-207.25-1085.83,0-1085.83,0
		v-2573.95l1.19-249.27c-0.4,0-0.79,0-1.19,0.01v-24.71c94.4-7.99,335.66-12.51,790.42,72
		C854.02,1776.466,1270.75,1885.456,1983.6,1877.176z"/>
	<linearGradient id="SVGID_2_" gradientUnits="userSpaceOnUse" x1="-980" y1="7160.1855" x2="-980.0001" y2="5845.6055">
		<stop  offset="0.1362" style="stop-color:#12491D"/>
		<stop  offset="0.449" style="stop-color:#134B1E"/>
		<stop  offset="0.6519" style="stop-color:#16531F"/>
		<stop  offset="0.8235" style="stop-color:#1B6222"/>
		<stop  offset="0.9769" style="stop-color:#227825"/>
		<stop  offset="1" style="stop-color:#237D26"/>
	</linearGradient>
	<path fill="url(#SVGID_2_)" d="M-20.59,5899.096v1261.09h-1918.82V5898.706c160.76-39.82,306.891-53.101,430.33-53.101
		c247.16,0,403.25,53.24,403.25,53.24C-500.471,6101.836-39.291,5907.186-20.59,5899.096z"/>
	<linearGradient id="SVGID_3_" gradientUnits="userSpaceOnUse" x1="-5278.9995" y1="7160.1855" x2="-5278.9995" y2="5845.6055">
		<stop  offset="0.1362" style="stop-color:#12491D"/>
		<stop  offset="0.449" style="stop-color:#134B1E"/>
		<stop  offset="0.6519" style="stop-color:#16531F"/>
		<stop  offset="0.8235" style="stop-color:#1B6222"/>
		<stop  offset="0.9769" style="stop-color:#227825"/>
		<stop  offset="1" style="stop-color:#237D26"/>
	</linearGradient>
	<path fill="url(#SVGID_3_)" d="M-4319.589,5899.096v1261.09h-1918.82V5898.706c160.76-39.82,306.891-53.101,430.33-53.101
		c247.16,0,403.25,53.24,403.25,53.24C-4799.47,6101.836-4338.291,5907.186-4319.589,5899.096z"/>
	<path fill="#16712B" d="M-1671.049,4318.597"/>
	<rect x="63.6" y="1534.516" fill="none" width="1920" height="1697.66"/>
	<path fill="#16712B" d="M-4319,1825.405v19.5c0,0-224.949,48-838.42-66c0,0-398.06-104.109-1081.58-101.09v-17.1l1.181-0.33
		c0,0,796.819-66,1357.819,106C-4880,1766.386-4640.029,1834.405-4319,1825.405z"/>
	<linearGradient id="SVGID_4_" gradientUnits="userSpaceOnUse" x1="-5279" y1="4605.6211" x2="-5279" y2="1700.4365">
		<stop  offset="0.1362" style="stop-color:#12491D"/>
		<stop  offset="0.449" style="stop-color:#134B1E"/>
		<stop  offset="0.6519" style="stop-color:#16531F"/>
		<stop  offset="0.8235" style="stop-color:#1B6222"/>
		<stop  offset="0.9769" style="stop-color:#227825"/>
		<stop  offset="1" style="stop-color:#237D26"/>
	</linearGradient>
	<path fill="url(#SVGID_4_)" d="M-4319,1877.176v2675.21c-482.96,119.78-834.17,0-834.17,0c-618.06-207.25-1085.83,0-1085.83,0
		v-2573.95l1.19-249.27c-0.4,0-0.79,0-1.19,0.01v-24.71c94.4-7.99,335.66-12.51,790.42,72
		C-5448.58,1776.466-5031.85,1885.456-4319,1877.176z"/>
	<rect x="-6239" y="1534.516" fill="none" width="1920" height="1697.66"/>
	<rect x="-1939.41" y="5845.605" fill="none" width="1918.82" height="1314.58"/>
</g>
<g id="South_Publicity">
	<text transform="matrix(1 0 0 1 0.5957 68.0034)" fill="#B3C8DA" font-family="'Cuprum-BoldItalic'" font-size="80">South Publicity</text>
</g>
<g id="Header">
	<path fill="#122C1F" d="M-20.595-142.614v61.61h-1594.378c-41.998-1.496-93.572,42.788-96.612,85.62
		c-3.343,47.104-38.19,86.88-85.29,86.88h-142.529v-234.11H-20.595z"/>
	<path fill="#122C1F" d="M-4319.595-142.614v61.61h-1594.378c-41.998-1.496-93.572,42.788-96.612,85.62
		c-3.343,47.104-38.19,86.88-85.29,86.88h-142.529v-234.11H-4319.595z"/>
</g>
</svg>
